HIERARCHY
ROOT Hips
{
    OFFSET   0.000000   0.000000   0.000000
    CHANNELS 6 Xposition Yposition Zposition Zrotation Xrotation Yrotation
    JOINT Chest
    {
        OFFSET   0.000000   8.007240   0.000000
        CHANNELS 3 Zrotation Xrotation Yrotation
        JOINT Chest2
        {
            OFFSET   0.000000  22.077100   0.000000
            CHANNELS 3 Zrotation Xrotation Yrotation
            JOINT Neck
            {
                OFFSET   0.000000  23.254800   0.000000
                CHANNELS 3 Zrotation Xrotation Yrotation
                JOINT Head
                {
                    OFFSET   0.000000  14.370000   1.956600
                    CHANNELS 3 Zrotation Xrotation Yrotation
                    End Site
                    {
                        OFFSET   0.000000  19.566000   0.000000
                    }
                }
            }
            JOINT LeftCollar
            {
                OFFSET   3.911900  19.017000  -0.467064
                CHANNELS 3 Zrotation Xrotation Yrotation
                JOINT LeftShoulder
                {
                    OFFSET  10.383700   0.000000   0.000000
                    CHANNELS 3 Zrotation Xrotation Yrotation
                    JOINT LeftElbow
                    {
                        OFFSET  26.662100   0.001476   0.000517
                        CHANNELS 3 Zrotation Xrotation Yrotation
                        JOINT LeftWrist
                        {
                            OFFSET  28.869000  -0.000025  -0.000106
                            CHANNELS 3 Zrotation Xrotation Yrotation
                            JOINT LeftFinger0
                            {
                                OFFSET   2.044660  -2.323460   3.252850
                                CHANNELS 3 Zrotation Xrotation Yrotation
                                JOINT LeftFinger01
                                {
                                    OFFSET   3.088130   0.000000   0.000000
                                    CHANNELS 3 Zrotation Xrotation Yrotation
                                    JOINT LeftFinger02
                                    {
                                        OFFSET   2.639460   0.000000   0.000000
                                        CHANNELS 3 Zrotation Xrotation Yrotation
                                        End Site
                                        {
                                            OFFSET   2.582190   0.000000   0.000000
                                        }
                                    }
                                }
                            }
                            JOINT LeftFinger1
                            {
                                OFFSET   8.364480   0.000000   3.252850
                                CHANNELS 3 Zrotation Xrotation Yrotation
                                JOINT LeftFinger11
                                {
                                    OFFSET   4.646930   0.000000   0.000000
                                    CHANNELS 3 Zrotation Xrotation Yrotation
                                    JOINT LeftFinger12
                                    {
                                        OFFSET   2.323460   0.000000   0.000000
                                        CHANNELS 3 Zrotation Xrotation Yrotation
                                        End Site
                                        {
                                            OFFSET   2.273050   0.000000   0.000000
                                        }
                                    }
                                }
                            }
                            JOINT LeftFinger2
                            {
                                OFFSET   8.364490   0.000015   1.078090
                                CHANNELS 3 Zrotation Xrotation Yrotation
                                JOINT LeftFinger21
                                {
                                    OFFSET   5.111620   0.000000   0.000000
                                    CHANNELS 3 Zrotation Xrotation Yrotation
                                    JOINT LeftFinger22
                                    {
                                        OFFSET   2.788160   0.000016   0.000000
                                        CHANNELS 3 Zrotation Xrotation Yrotation
                                        End Site
                                        {
                                            OFFSET   2.727660   0.000000   0.000000
                                        }
                                    }
                                }
                            }
                            JOINT LeftFinger3
                            {
                                OFFSET   7.899780   0.000017  -1.078090
                                CHANNELS 3 Zrotation Xrotation Yrotation
                                JOINT LeftFinger31
                                {
                                    OFFSET   4.646930   0.000000   0.000000
                                    CHANNELS 3 Zrotation Xrotation Yrotation
                                    JOINT LeftFinger32
                                    {
                                        OFFSET   2.323470   0.000000   0.000000
                                        CHANNELS 3 Zrotation Xrotation Yrotation
                                        End Site
                                        {
                                            OFFSET   2.273050   0.000000   0.000000
                                        }
                                    }
                                }
                            }
                            JOINT LeftFinger4
                            {
                                OFFSET   7.435090   0.000000  -3.252850
                                CHANNELS 3 Zrotation Xrotation Yrotation
                                JOINT LeftFinger41
                                {
                                    OFFSET   3.717550   0.000000   0.000000
                                    CHANNELS 3 Zrotation Xrotation Yrotation
                                    JOINT LeftFinger42
                                    {
                                        OFFSET   1.858770   0.000000   0.000000
                                        CHANNELS 3 Zrotation Xrotation Yrotation
                                        End Site
                                        {
                                            OFFSET   1.818440   0.000000   0.000000
                                        }
                                    }
                                }
                            }
                        }
                    }
                }
            }
            JOINT RightCollar
            {
                OFFSET  -3.911900  19.017000  -0.467063
                CHANNELS 3 Zrotation Xrotation Yrotation
                JOINT RightShoulder
                {
                    OFFSET -10.383700   0.000019   0.000000
                    CHANNELS 3 Zrotation Xrotation Yrotation
                    JOINT RightElbow
                    {
                        OFFSET -26.662100   0.001175   0.000102
                        CHANNELS 3 Zrotation Xrotation Yrotation
                        JOINT RightWrist
                        {
                            OFFSET -28.869000   0.000016  -0.000079
                            CHANNELS 3 Zrotation Xrotation Yrotation
                            JOINT RightFinger0
                            {
                                OFFSET  -2.044660  -2.323490   3.252850
                                CHANNELS 3 Zrotation Xrotation Yrotation
                                JOINT RightFinger01
                                {
                                    OFFSET  -3.088140   0.000000   0.000000
                                    CHANNELS 3 Zrotation Xrotation Yrotation
                                    JOINT RightFinger02
                                    {
                                        OFFSET  -2.639460   0.000000   0.000000
                                        CHANNELS 3 Zrotation Xrotation Yrotation
                                        End Site
                                        {
                                            OFFSET  -2.582190   0.000000   0.000000
                                        }
                                    }
                                }
                            }
                            JOINT RightFinger1
                            {
                                OFFSET  -8.364480   0.000000   3.252850
                                CHANNELS 3 Zrotation Xrotation Yrotation
                                JOINT RightFinger11
                                {
                                    OFFSET  -4.646930   0.000000   0.000000
                                    CHANNELS 3 Zrotation Xrotation Yrotation
                                    JOINT RightFinger12
                                    {
                                        OFFSET  -2.323470   0.000000   0.000000
                                        CHANNELS 3 Zrotation Xrotation Yrotation
                                        End Site
                                        {
                                            OFFSET  -2.273050   0.000000   0.000000
                                        }
                                    }
                                }
                            }
                            JOINT RightFinger2
                            {
                                OFFSET  -8.364480   0.000000   1.078090
                                CHANNELS 3 Zrotation Xrotation Yrotation
                                JOINT RightFinger21
                                {
                                    OFFSET  -5.111620   0.000000   0.000000
                                    CHANNELS 3 Zrotation Xrotation Yrotation
                                    JOINT RightFinger22
                                    {
                                        OFFSET  -2.788160   0.000000   0.000000
                                        CHANNELS 3 Zrotation Xrotation Yrotation
                                        End Site
                                        {
                                            OFFSET  -2.727660   0.000000   0.000000
                                        }
                                    }
                                }
                            }
                            JOINT RightFinger3
                            {
                                OFFSET  -7.899780   0.000000  -1.078090
                                CHANNELS 3 Zrotation Xrotation Yrotation
                                JOINT RightFinger31
                                {
                                    OFFSET  -4.646930   0.000000   0.000000
                                    CHANNELS 3 Zrotation Xrotation Yrotation
                                    JOINT RightFinger32
                                    {
                                        OFFSET  -2.323470   0.000000   0.000000
                                        CHANNELS 3 Zrotation Xrotation Yrotation
                                        End Site
                                        {
                                            OFFSET  -2.273050   0.000000   0.000000
                                        }
                                    }
                                }
                            }
                            JOINT RightFinger4
                            {
                                OFFSET  -7.435090   0.000000  -3.252850
                                CHANNELS 3 Zrotation Xrotation Yrotation
                                JOINT RightFinger41
                                {
                                    OFFSET  -3.717550   0.000000   0.000000
                                    CHANNELS 3 Zrotation Xrotation Yrotation
                                    JOINT RightFinger42
                                    {
                                        OFFSET  -1.858770   0.000000   0.000000
                                        CHANNELS 3 Zrotation Xrotation Yrotation
                                        End Site
                                        {
                                            OFFSET  -1.818440   0.000000   0.000000
                                        }
                                    }
                                }
                            }
                        }
                    }
                }
            }
        }
    }
    JOINT LeftHip
    {
        OFFSET   9.783040   0.000000   0.000000
        CHANNELS 3 Zrotation Xrotation Yrotation
        JOINT LeftKnee
        {
            OFFSET   0.000032 -41.789100  -0.002222
            CHANNELS 3 Zrotation Xrotation Yrotation
            JOINT LeftAnkle
            {
                OFFSET   0.000087 -41.133200  -0.000135
                CHANNELS 3 Zrotation Xrotation Yrotation
                JOINT LeftToe
                {
                    OFFSET   0.000000  -6.358960  14.674500
                    CHANNELS 3 Zrotation Xrotation Yrotation
                    End Site
                    {
                        OFFSET   0.000000   0.000000   3.913200
                    }
                }
            }
        }
    }
    JOINT RightHip
    {
        OFFSET  -9.783040   0.000000   0.000000
        CHANNELS 3 Zrotation Xrotation Yrotation
        JOINT RightKnee
        {
            OFFSET   0.000047 -41.789100  -0.000896
            CHANNELS 3 Zrotation Xrotation Yrotation
            JOINT RightAnkle
            {
                OFFSET  -0.000117 -41.133300  -0.000248
                CHANNELS 3 Zrotation Xrotation Yrotation
                JOINT RightToe
                {
                    OFFSET   0.000000  -6.358970  14.674500
                    CHANNELS 3 Zrotation Xrotation Yrotation
                    End Site
                    {
                        OFFSET   0.000000   0.000000   3.913200
                    }
                }
            }
        }
    }
}
MOTION
Frames: 5
Frame Time:   0.016667
 -2.331320  89.522400   0.860366  -1.954790  -1.503540  -0.131597   0.953162   1.379160  -0.547500   1.920290   2.748940  -1.118350   1.420280   0.132385   0.003204   2.333280   0.267968   3.943720  -3.620050   1.193110  -0.802259 -69.949100  19.721700  -4.448510  -2.209690  -3.882060  -7.961570   2.044700  -7.610050   5.613760  36.389400  29.698400 -73.104800  -9.296260   0.006368   0.004385   0.351882   0.004461   0.002318 -26.427200   5.529130 -10.987200 -22.058300   0.003244  -0.000000 -15.455900   0.002226  -0.001215 -26.848000   3.381540  -6.648290 -27.154300  -0.003412  -0.001838 -18.091800   0.002229  -0.001229 -27.133200   0.904459  -1.764920 -27.579400  -0.007297  -0.001616 -18.367900   0.001957  -0.001069 -29.331500   0.471349  -0.838909 -44.002700  -0.004300  -0.000145 -29.305800   0.001409  -0.001584   5.165370  -0.073845   7.270760  69.843000  10.005600   2.090190   1.627590  -2.223050   4.036510  -7.352000  -8.711600   2.980910 -41.888800  33.354700  74.060600  16.607900  -0.004476   0.001397   3.303970   0.004419   0.003117  26.373700   5.143990  10.238700  21.956400   0.007412   0.003842  15.369500   0.009144   0.002654  27.228200   4.073200   7.880240  29.203600  -0.005961  -0.001296  19.449600   0.001885   0.002726  27.452800   3.624600   6.930260  30.044000   0.004104   0.007847  20.009300   0.004168   0.004674  32.643700   0.750171   1.165980  48.976800   0.007698   0.008392  32.618500   0.001425   0.002841   3.016700   4.969020   2.786840   0.646555   0.865021   9.264480  -3.121180  -3.265810   3.024730   0.000000   0.000000  -0.000000   0.854209   0.947178  -6.004810   1.361760   3.828260  -4.975520  -2.801150  -2.680230  -2.592660   0.000000   0.000000  -0.000000
 -2.351610  89.522300   0.848158  -1.954170  -1.524730  -0.109699   0.958227   1.394600  -0.548022   1.930610   2.779760  -1.119790   1.415710   0.119543   0.003231   2.325900   0.242173   3.953210  -3.633890   1.185980  -0.808264 -69.923700  19.742000  -4.472090  -2.211310  -3.895090  -7.961850   2.041240  -7.609910   5.624680  36.380900  29.695600 -73.100300  -9.316660   0.006376   0.004380   0.341673   0.004462   0.002308 -26.427900   5.529280 -10.979400 -22.058300   0.003246  -0.000000 -15.456000   0.002223  -0.001214 -26.848700   3.378730  -6.642350 -27.158300  -0.003410  -0.001836 -18.091800   0.002226  -0.001229 -27.133300   0.903773  -1.763600 -27.573900  -0.007294  -0.001612 -18.364300   0.001957  -0.001066 -29.328300   0.469323  -0.835351 -43.997800  -0.004302  -0.000142 -29.302500   0.001406  -0.001580   5.169690  -0.107452   7.298630  69.820000  10.010400   2.070750   1.628680  -2.224340   4.021410  -7.344220  -8.701960   2.972100 -41.870600  33.364200  74.082600  16.622200  -0.004484   0.001409   3.311240   0.004420   0.003124  26.388700   5.143300  10.235500  21.968400   0.007411   0.003840  15.377800   0.009144   0.002650  27.228500   4.073040   7.877000  29.224700  -0.005962  -0.001299  19.463600   0.001879   0.002726  27.453100   3.621020   6.926790  30.057300   0.004101   0.007844  20.018200   0.004164   0.004672  32.655900   0.749869   1.165980  48.995100   0.007697   0.008388  32.630800   0.001419   0.002844   3.032380   4.986240   2.787350   0.645992   0.848541   9.259980  -3.136190  -3.245880   3.004280   0.000000   0.000000   0.000000   0.872872   0.948197  -6.004800   1.363210   3.850930  -4.969360  -2.814260  -2.685520  -2.617070   0.000000   0.000000  -0.000000
 -2.385800  89.522100   0.827979  -1.953060  -1.559690  -0.069757   0.967891   1.421010  -0.549783   1.950280   2.832460  -1.124010   1.408410   0.096925   0.003258   2.314030   0.196584   3.968390  -3.659750   1.171860  -0.814267 -69.884700  19.775800  -4.511280  -2.212930  -3.908120  -7.962130   2.032230  -7.609770   5.635700  36.372800  29.691800 -73.096600  -9.337070   0.006383   0.004363   0.331465   0.004463   0.002297 -26.428700   5.529420 -10.971600 -22.058300   0.003247   0.000000 -15.456200   0.002217  -0.001210 -26.849400   3.375910  -6.636400 -27.164900  -0.003406  -0.001830 -18.091800   0.002222  -0.001226 -27.133400   0.903087  -1.762280 -27.568500  -0.007285  -0.001602 -18.360600   0.001955  -0.001059 -29.325100   0.467298  -0.831793 -43.992800  -0.004308  -0.000134 -29.299200   0.001397  -0.001568   5.177530  -0.168659   7.351430  69.776100  10.020400   2.035970   1.633550  -2.233190   3.991010  -7.324680  -8.675420   2.956550 -41.852400  33.373800  74.104500  16.644200  -0.004492   0.001422   3.322120   0.004422   0.003131  26.404500   5.140320  10.229200  21.980300   0.007403   0.003834  15.386200   0.009143   0.002645  27.228900   4.072910   7.870940  29.245800  -0.005969  -0.001308  19.477700   0.001869   0.002723  27.452000   3.614420   6.919070  30.070600   0.004097   0.007835  20.027100   0.004154   0.004666  32.668100   0.749566   1.165980  49.013500   0.007694   0.008379  32.643000   0.001403   0.002850   3.059450   5.011300   2.790540   0.645479   0.832069   9.251870  -3.164840  -3.213820   2.964280   0.000000   0.000000  -0.000000   0.903034   0.950526  -6.004710   1.365860   3.887400  -4.963280  -2.836970  -2.694630  -2.658430  -0.000000   0.000000   0.000000
 -2.414020  89.522400   0.812102  -1.952220  -1.586650  -0.031001   0.978294   1.443510  -0.552927   1.971430   2.877300  -1.130970   1.402060   0.076442   0.003197   2.302880   0.154922   3.978930  -3.686260   1.154460  -0.814078 -69.861500  19.801700  -4.541690  -2.213650  -3.907880  -7.960480   2.018100  -7.609770   5.635820  36.363100  29.691700 -73.104200  -9.328730   0.006372   0.004336   0.335637   0.004461   0.002294 -26.432400   5.534220 -10.979100 -22.062000   0.003246   0.000000 -15.456300   0.002206  -0.001202 -26.847500   3.383680  -6.651420 -27.171300  -0.003401  -0.001822 -18.094500   0.002221  -0.001221 -27.133100   0.907926  -1.770530 -27.574100  -0.007271  -0.001585 -18.364300   0.001954  -0.001046 -29.330300   0.472105  -0.840166 -44.000600  -0.004320  -0.000120 -29.304400   0.001382  -0.001547   5.180040  -0.230138   7.407610  69.730600  10.034200   2.000060   1.645360  -2.255470   3.957210  -7.291690  -8.628820   2.943930 -41.849600  33.367700  74.090400  16.660800  -0.004483   0.001402   3.329320   0.004419   0.003130  26.394600   5.132290  10.220000  21.971200   0.007388   0.003823  15.379800   0.009137   0.002643  27.225100   4.073450   7.862890  29.227600  -0.005985  -0.001329  19.465500   0.001865   0.002718  27.446800   3.605940   6.905530  30.042900   0.004095   0.007818  20.008600   0.004140   0.004655  32.654000   0.751628   1.171080  48.992500   0.007683   0.008368  32.629000   0.001380   0.002855   3.083270   5.023360   2.799710   0.644961   0.837318   9.244650  -3.195620  -3.191000   2.918880   0.000000   0.000000   0.000000   0.925668   0.952756  -6.004340   1.368780   3.914640  -4.966830  -2.856660  -2.702720  -2.692150  -0.000000   0.000000   0.000000
 -2.442500  89.523100   0.796585  -1.951390  -1.613630   0.012759   0.989963   1.466950  -0.557411   1.995150   2.923970  -1.140660   1.398430   0.054176   0.003109   2.297400   0.109619   3.989280  -3.716060   1.137200  -0.812784 -69.840900  19.829000  -4.573390  -2.216720  -3.907650  -7.958820   2.003170  -7.609770   5.635840  36.353600  29.691300 -73.112100  -9.320380   0.006352   0.004301   0.339809   0.004459   0.002294 -26.438200   5.541130 -10.989700 -22.067800   0.003244  -0.000000 -15.456300   0.002195  -0.001197 -26.845700   3.391450  -6.666440 -27.175100  -0.003394  -0.001810 -18.098600   0.002221  -0.001212 -27.132800   0.912764  -1.778770 -27.582600  -0.007251  -0.001561 -18.370000   0.001951  -0.001028 -29.338200   0.478811  -0.851821 -44.012600  -0.004335  -0.000104 -29.312400   0.001362  -0.001520   5.183250  -0.294644   7.470280  69.675600  10.047000   1.967540   1.658100  -2.288560   3.914150  -7.257830  -8.576400   2.926920 -41.847400  33.357200  74.066400  16.669600  -0.004468   0.001374   3.332910   0.004410   0.003130  26.374500   5.125710  10.213900  21.954200   0.007369   0.003810  15.367900   0.009129   0.002639  27.218400   4.074570   7.857680  29.196700  -0.006008  -0.001357  19.444900   0.001860   0.002711  27.439600   3.600470   6.896250  29.997200   0.004091   0.007795  19.978100   0.004120   0.004640  32.629300   0.755615   1.180030  48.955600   0.007669   0.008354  32.604500   0.001349   0.002862   3.107580   5.031700   2.811200   0.643866   0.847791   9.235570  -3.230480  -3.168780   2.868320  -0.000000   0.000000   0.000000   0.946187   0.957647  -6.003790   1.373620   3.938750  -4.974230  -2.878010  -2.710770  -2.728380  -0.000000   0.000000   0.000000
